<?xml version="1.0" encoding="UTF-8"?>
<svg id="Layer_1" data-name="Layer 1" xmlns="http://www.w3.org/2000/svg" width="220.53" height="365.43" viewBox="0 0 220.53 365.43">
  <defs>
    <style>
      .cls-1, .cls-2, .cls-3 {
        fill-rule: evenodd;
      }

      .cls-1, .cls-4 {
        fill: #fff;
      }

      .cls-3 {
        fill: #e30a17;
      }
    </style>
  </defs>
  <path class="cls-4" d="M39.91,76.99l7.54-23.2-19.73-14.34h24.39l7.54-23.2,7.54,23.2h24.39l-19.73,14.34,7.54,23.2-19.73-14.34-19.73,14.34ZM32.81,41.11l16.58,12.05-6.33,19.49,16.58-12.05,16.58,12.05-6.33-19.49,16.58-12.05h-20.5l-6.34-19.5-6.33,19.5h-20.5Z"/>
  <polygon points="76.23 72.65 69.9 53.16 86.48 41.11 65.98 41.11 59.65 21.61 53.31 41.11 32.81 41.11 49.4 53.16 43.06 72.65 59.65 60.61 76.23 72.65"/>
  <path class="cls-4" d="M90.53,60.73l7.54-23.2-19.73-14.34h24.39L110.26,0l7.54,23.2h24.39l-19.73,14.34,7.54,23.2-19.73-14.34-19.73,14.34ZM83.43,24.85l16.58,12.05-6.33,19.49,16.58-12.05,16.58,12.05-6.33-19.49,16.58-12.05h-20.5l-6.34-19.5-6.33,19.5h-20.5Z"/>
  <polygon points="126.85 56.4 120.51 36.9 137.1 24.85 116.6 24.85 110.26 5.36 103.93 24.85 83.43 24.85 100.01 36.9 93.68 56.4 110.26 44.35 126.85 56.4"/>
  <path class="cls-4" d="M141.15,76.99l7.54-23.2-19.73-14.34h24.39l7.54-23.2,7.54,23.2h24.39l-19.73,14.34,7.54,23.2-19.73-14.34-19.73,14.34ZM134.05,41.11l16.58,12.05-6.33,19.49,16.58-12.05,16.58,12.05-6.33-19.49,16.58-12.05h-20.5l-6.34-19.5-6.33,19.5h-20.5Z"/>
  <polygon points="177.46 72.65 171.13 53.16 187.71 41.11 167.22 41.11 160.88 21.61 154.55 41.11 134.05 41.11 150.63 53.16 144.3 72.65 160.88 60.61 177.46 72.65"/>
  <path class="cls-1" d="M109.42,364.45c-4.33-5.07-9.6-10.97-15.84-16.27-9.82-8.44-20.71-14.29-32.9-20.53-14.62-7.47-29.73-15.19-41.12-28.61-7.45-8.8-12.56-19.89-15.19-32.94-2.25-11.14-2.61-23.72-1.07-36.38,1.13-9.12,3.24-18.25,6.11-26.4,1.93-5.46,3.18-9.35,4.18-13,4.11-15.15,2.25-29.43-5.83-44.93-2.02-3.86-4.42-7.41-7.13-11.32l-.63-.92.92-.63c4.65-3.17,9.57-6.6,14.03-10.67,7.09-6.38,12.85-13.77,17.12-21.97,2.87-5.49,4.96-11.26,7.03-17.18l.54-1.56,1.24,1.09c6.15,5.45,13.12,11.62,22.36,13.72,2.42.56,4.89.83,7.54.83,4.18,0,8.76-.69,13.99-2.1,9.05-2.43,17.41-3.61,25.54-3.61s16.46,1.18,25.44,3.61c5.23,1.41,9.81,2.1,13.99,2.1,2.65,0,5.12-.27,7.54-.83,9.24-2.11,16.21-8.28,22.36-13.72l1.24-1.09.54,1.56c2.07,5.92,4.16,11.68,7.03,17.18,4.28,8.21,10.03,15.6,17.12,21.97,4.47,4.07,9.38,7.5,14.03,10.67l.92.63-.64.92c-2.71,3.91-5.11,7.46-7.13,11.32-8.08,15.49-9.93,29.77-5.83,44.93,1,3.65,2.25,7.54,4.18,13,2.87,8.15,4.99,17.27,6.11,26.4,1.55,12.67,1.18,25.25-1.07,36.38-2.63,13.06-7.74,24.14-15.19,32.94-11.39,13.42-26.5,21.14-41.12,28.61-12.19,6.24-23.07,12.1-32.9,20.53-6.25,5.3-11.52,11.2-15.85,16.27l-.84.99-.84-.99Z"/>
  <g>
    <path class="cls-2" d="M191.3,302.86c.18-.16.36-.33.54-.49-.18.17-.36.33-.54.49Z"/>
    <path class="cls-2" d="M208.41,277.58c2.46-6.58,4.1-13.86,4.88-21.64,1.69-16.48-.59-35.15-6.27-51.2-3.16-9.02-5.83-17.18-6.56-25.61-.96-11.13,1.89-23.15,8.45-35.75,1.5-2.86,3.27-5.76,5.57-9.12-9.12-6.19-16.33-12.79-22.06-20.19-5.62-7.24-9.91-15.32-13.49-25.42-7.14,6.26-13.71,9.92-20.67,11.52-6.92,1.59-14.43,1.18-23.63-1.3-17.99-4.87-30.74-4.87-48.73,0-9.2,2.47-16.7,2.88-23.62,1.3-6.96-1.6-13.53-5.26-20.67-11.52-3.58,10.11-7.87,18.18-13.49,25.42-5.73,7.4-12.94,14-22.07,20.19,2.31,3.36,4.07,6.26,5.57,9.12,6.54,12.54,9.38,24.57,8.45,35.75-.74,8.43-3.41,16.58-6.56,25.61-5.67,16.03-7.97,34.69-6.31,51.2.8,7.79,2.45,15.07,4.91,21.64,2.66,7.11,6.28,13.4,10.76,18.67,10.75,12.67,25.5,20.22,39.77,27.53,5.91,3.02,12.02,6.15,17.75,9.6,11.22,6.74,21,15.06,29.88,25.42,8.88-10.36,18.66-18.67,29.88-25.42,5.74-3.45,11.84-6.58,17.75-9.6,14.26-7.3,29.01-14.86,39.76-27.53,4.48-5.28,8.1-11.56,10.76-18.67Z"/>
    <path class="cls-2" d="M25.56,299.3c.09.09.18.19.27.29-.09-.09-.18-.19-.27-.29Z"/>
    <path class="cls-2" d="M28.68,302.36c.18.17.37.33.56.5-.19-.17-.37-.33-.56-.5Z"/>
    <path class="cls-2" d="M194.7,299.59c.09-.09.17-.18.25-.27-.09.09-.17.18-.25.27Z"/>
  </g>
  <path class="cls-4" d="M142.02,104.85v67.13l-2,1.35c-4.7,3.17-11.63,4.09-18.53,2.45-8.38-2-14.08-2-22.44,0-6.91,1.64-13.83.72-18.53-2.45l-2-1.35v-67.13c-13.18,1.9-23.98-.89-34.94-9.01v212.39c3.06,1.98,6.25,3.82,9.52,5.61,8.37,4.45,17.1,8.4,25.42,12.88v-63.01c3.29,1.92,6.77,3.49,10.2,5.03,2.66,1.19,5.17,2.32,7.55,3.59,4.31,2.28,8.18,5.07,11.51,8.3l2.5,2.42,2.5-2.42c3.33-3.23,7.21-6.02,11.52-8.3,2.38-1.26,4.89-2.39,7.54-3.59,3.43-1.54,6.91-3.11,10.2-5.03v63.01c8.32-4.48,17.05-8.44,25.43-12.89,3.27-1.79,6.45-3.63,9.51-5.61V95.84c-10.96,8.12-21.76,10.92-34.94,9.01Z"/>
  <path class="cls-2" d="M156.36,314.5h.09c.06,0,.12,0,.18,0,4.18,0,10.92-2.13,11.78-7.98.5-3.39-2.06-6.86-5.95-8.08l-.42-.13.41-.18c3.71-1.63,5.64-4.69,5.03-7.98-.91-4.94-6.93-7.11-11.02-7.11-.09,0-.17,0-.27,0-3.96,0-8.7,2.24-9.86,6.02-.46,1.53-.19,3.29.7,4.49.53.71,1.52,1.57,3.22,1.57,2.1-.04,3.45-1.56,3.85-3.06.34-1.28.13-3.01-1.5-3.99l-.08-.05v-.1c.07-1.2,1.21-1.99,2.98-2.07.06,0,.12,0,.17,0,1.57,0,2.95.6,3.9,1.7,1.14,1.31,1.61,3.2,1.28,5.19-.73,4.5-4.07,4.56-7.62,4.63h-.15v2.19l.28.02c3.64.19,7.08.37,7.87,5.03.39,2.27-.34,5.14-2.88,6.45-1.51.69-3.54.65-4.72-.11-.67-.43-1.03-1.05-1.03-1.78v-.09l.08-.05c1.31-.82,1.87-2.28,1.44-3.79-.42-1.51-1.84-3.04-4.08-3.08-1.31,0-2.37.5-3.09,1.46-.9,1.2-1.15,2.99-.65,4.67,1.19,3.91,6.02,6.22,10.03,6.22Z"/>
  <path class="cls-1" d="M124.74,283.3c-7.11,0-12.89,6.94-12.89,15.47s5.78,15.47,12.89,15.47c7.09,0,12.86-6.94,12.86-15.47s-5.77-15.47-12.86-15.47ZM124.74,311.81c-2.84,0-5.05-5.73-5.05-13.04s2.22-13.04,5.05-13.04,5.02,5.73,5.02,13.04-2.21,13.04-5.02,13.04Z"/>
  <path class="cls-1" d="M94.37,314.25c6.98,0,12.66-6.94,12.66-15.47s-5.67-15.47-12.65-15.47c-3.03-.07-5.91.93-7.89,2.76-2,1.87-3.12,4.74-2.94,7.5.16,2.33,1.24,4.31,3.04,5.6,3.35,2.37,8.4,2.44,12.01.16l.58-.36.02.68c.13,5.81-1.76,12.09-4.8,12.18h0c-.57,0-1-.15-1.29-.46-.47-.49-.52-1.25-.49-1.93v-.11s.06-.09.06-.09c.55-.87.51-2.85-.09-4.01-.66-1.29-1.99-1.96-3.87-1.96-.12,0-.25,0-.37,0-1.82.09-3.13.98-3.7,2.49-.67,1.8-.09,3.99,1.44,5.45,2.13,2.06,5.88,3.08,8.3,3.03ZM97.48,296.24c-.74,1.32-1.81,2.02-3.1,2.02s-2.38-.68-3.12-1.96c-.62-1.08-.96-2.54-.96-4.11,0-3.2,1.4-6.45,4.07-6.45s4.06,3.27,4.06,6.31c0,1.6-.34,3.09-.96,4.2Z"/>
  <path class="cls-2" d="M74.28,313.97h-13.71l-.21-2.37,3.69-1.77v-17.92h-5.23v-3.21c2.86-1.08,6.11-1.99,9.32-5.12h2.69v26.25s3.69,1.77,3.69,1.77l-.24,2.37Z"/>
  <path d="M175.06,162.43c-3.67-2.73-4.4-7.73-5.05-12.13-.15-1.04-.3-2.01-.47-2.95-1.6-8.48-5.2-12.36-11-11.84l8.73-14.29c1.55-2.54,3.05-3.71,5.63-5.25l.34-.2h-12.3l.2.19c1.98,1.91,2.63,3.17,1.22,5.61l-7.37,12.72v-14.53c0-1.3.69-2.54,2.11-3.79l.22-.19h-13.66l.22.19c1.46,1.29,2.15,2.49,2.15,3.79v36.64c-.14,2.75-.29,3.13-.87,3.58-1.03.77-1.56,1.5-2.01,2.8l-.07.2.2-.06c3.88-1.13,11.3-.84,14.71-.14l.19.04-.06-.18c-.37-1.05-.96-1.46-1.65-1.94-.19-.13-.39-.27-.6-.44-.62-.49-.77-1.14-.88-3.86v-17.54c5.37.08,6.2,6.1,7,11.92.8,5.84,1.63,11.88,7.08,11.88.14,0,.29,0,.43-.01h5.83l-.27-.2Z"/>
  <path d="M73.28,142.4c-2.02-2.52-4.5-4.14-7.05-4.6,2.31-.53,4.15-1.69,5.36-3.37,3.25-4.41,2.81-10.68-1.06-15.25-2.49-2.91-4.66-3.42-8.3-3.42h-16.99l.21.19c.96.87,2.11,2.26,2.11,3.93v36.64c-.14,2.73-.29,3.38-.87,3.86-.19.15-.37.28-.54.4-.71.5-1.27.9-1.65,1.98l-.08.24.23-.1c.91-.39,6.1-1.61,10.66-.77.8.08,1.63.19,2.52.3,3.39.44,7.23.94,10.29-.13,3.65-1.27,6.38-4.22,7.49-8.11,1.18-4.15.31-8.56-2.33-11.8ZM65.26,143.77c.98,3.08.97,8.38.35,11.22-.23,1.04-.79,1.84-1.66,2.38-2.4,1.47-6.47.57-7.1.42v-17.85l3.38-.03c2.55,0,4.2,1.27,5.04,3.87ZM56.85,135.66v-16.49h2.08c1.94,0,2.31.06,3.07.51,2.22,1.34,2.28,5.25,2.31,7.35v.31c.07,3.59-.51,5.95-1.75,7.22-.71.72-1.66,1.09-2.82,1.09h-2.89Z"/>
  <path class="cls-4" d="M101.84,115.76l-.02.09c-.28,1.73-.96,2.65-1.95,3.85l-.11.13.16.05c1.39.38,2.41.02,3.83-.48.45-.16.95-.34,1.51-.51,1.74-.52,4.58-.38,6.52-.01v37c0,1.07-.41,1.96-1.22,2.63-1.53,1.27-4.43,1.7-7.56,1.1-2.67-.5-5.93-1.78-6.35-5.04.02-.04.03-.1.05-.16,0-.02,0-.04.02-.06,1.63.17,3.07-.24,4.05-1.15.87-.81,1.3-1.96,1.24-3.3,0-2.77-2.52-4.24-4.86-4.44-3.06-.25-4.62,1.22-5.39,2.49-1.49,2.47-1.27,6.32.53,9.16,1.83,2.83,4.83,4.42,7.03,5.26,2.15.8,4.42,1.11,6.72,1.11,4.59,0,9.34-1.26,13.66-2.56.87-.37,1.72-.44,2.68-.2l.41.1-.31-.29c-.49-.46-.53-1.36-.63-3.76v-37.19c0-1.61,1.09-2.71,2.11-3.6l.22-.19h-22.34Z"/>
  <path class="cls-3" d="M151.61,220.55c-3.17-8.05-4.54-14.14-.97-22.41.89-2.04,1.98-4.01,3.24-5.83-5.92-3.9-8.88-9.63-11.86-16.01-6.11,4.12-14.29,4.64-21.37,2.96-3.82-.91-7.11-1.37-10.39-1.37s-6.57.46-10.39,1.37c-7.08,1.68-15.25,1.15-21.36-2.96-2.98,6.38-5.94,12.11-11.86,16.01,1.26,1.82,2.35,3.79,3.24,5.83,3.57,8.27,2.2,14.36-.97,22.41-2.24,5.65-3.43,12.68-2.68,19.39.63,5.54,2.61,10.82,6.48,14.87,6.67,7,16.8,9.88,25.22,14.36,4.55,2.41,8.68,5.36,12.33,8.89,3.65-3.53,7.79-6.49,12.33-8.89,8.42-4.48,18.55-7.36,25.22-14.36,3.87-4.04,5.85-9.33,6.48-14.87.74-6.7-.45-13.74-2.68-19.39Z"/>
  <polygon class="cls-1" points="110.26 211.04 113.01 202.47 122.03 202.47 114.72 197.19 117.54 188.62 110.26 193.93 102.99 188.62 105.81 197.19 98.5 202.47 107.52 202.47 110.26 211.04"/>
  <path class="cls-1" d="M129.08,207.25c6.53,5.38,10.69,13.44,10.69,22.42,0,16.07-13.29,29.17-29.51,29.17-16.22,0-29.51-13.1-29.51-29.17,0-8.98,4.16-17.04,10.69-22.42-2.56,3.71-4.05,8.13-4.05,12.95,0,12.54,10.28,22.83,22.86,22.83,12.58,0,22.86-10.28,22.86-22.83,0-4.83-1.48-9.28-4.05-12.95"/>
</svg>